<svg
  width="35"
  height="35"
  viewBox="0 0 35 35"
  fill="none"
  xmlns="http://www.w3.org/2000/svg"
>
  <path
    d="M28.1709 23.9224C27.3154 23.0662 26.3157 22.3674 25.2178 21.858C26.7661 20.6036 27.7539 18.6895 27.7539 16.543C27.7539 12.7559 24.5957 9.649 20.8086 9.7071C17.0796 9.76521 14.0752 12.8038 14.0752 16.543C14.0752 18.6895 15.0664 20.6036 16.6113 21.858C15.5132 22.367 14.5134 23.0659 13.6582 23.9224C11.792 25.7921 10.7324 28.2598 10.6641 30.8917C10.6631 30.9282 10.6695 30.9644 10.6829 30.9984C10.6962 31.0324 10.7162 31.0633 10.7417 31.0895C10.7672 31.1156 10.7976 31.1363 10.8313 31.1505C10.8649 31.1647 10.901 31.172 10.9375 31.1719H12.8516C12.9985 31.1719 13.1216 31.0557 13.125 30.9088C13.1899 28.9263 13.9932 27.0704 15.4048 25.6622C16.1271 24.936 16.9863 24.3603 17.9327 23.9684C18.879 23.5764 19.8937 23.3761 20.918 23.379C22.9995 23.379 24.958 24.189 26.4311 25.6622C27.8393 27.0704 28.6426 28.9263 28.7109 30.9088C28.7143 31.0557 28.8374 31.1719 28.9844 31.1719H30.8984C30.9349 31.172 30.971 31.1647 31.0047 31.1505C31.0383 31.1363 31.0688 31.1156 31.0942 31.0895C31.1197 31.0633 31.1397 31.0324 31.153 30.9984C31.1664 30.9644 31.1728 30.9282 31.1719 30.8917C31.1035 28.2598 30.0439 25.7921 28.1709 23.9224ZM20.918 20.918C19.749 20.918 18.6484 20.4634 17.8247 19.6363C17.4113 19.2262 17.0848 18.737 16.8645 18.1979C16.6443 17.6588 16.535 17.0809 16.543 16.4986C16.5532 15.3775 17.001 14.294 17.7837 13.4908C18.604 12.65 19.7012 12.1817 20.8735 12.168C22.0322 12.1578 23.1567 12.609 23.9839 13.419C24.8315 14.2496 25.2964 15.3604 25.2964 16.543C25.2964 17.712 24.8418 18.8092 24.0146 19.6363C23.6088 20.044 23.1262 20.3673 22.5947 20.5873C22.0631 20.8073 21.4932 20.9197 20.918 20.918ZM12.356 17.4454C12.3252 17.148 12.3081 16.8472 12.3081 16.543C12.3081 15.9996 12.3594 15.4698 12.4551 14.9537C12.479 14.8306 12.4141 14.7042 12.3013 14.6529C11.8364 14.4444 11.4092 14.1573 11.04 13.795C10.6051 13.3732 10.2628 12.8654 10.035 12.304C9.80728 11.7426 9.69906 11.1398 9.71728 10.5342C9.74804 9.43708 10.189 8.3946 10.958 7.60847C11.8022 6.74372 12.937 6.27204 14.1435 6.28571C15.2339 6.29597 16.2866 6.71638 17.083 7.4615C17.353 7.71443 17.5854 7.9947 17.7803 8.29548C17.8486 8.40144 17.9819 8.44587 18.0981 8.40485C18.6997 8.19636 19.3354 8.04939 19.9883 7.98103C20.1797 7.96052 20.2891 7.75544 20.2036 7.58454C19.0928 5.38679 16.8232 3.86921 14.1982 3.82819C10.4077 3.77009 7.24951 6.87702 7.24951 10.6607C7.24951 12.8072 8.2373 14.7213 9.78564 15.9757C8.69872 16.4781 7.69726 17.1719 6.8291 18.0401C4.95605 19.9097 3.89648 22.3775 3.82812 25.0128C3.82721 25.0492 3.83361 25.0855 3.84694 25.1195C3.86027 25.1535 3.88027 25.1844 3.90575 25.2105C3.93123 25.2367 3.96168 25.2574 3.99531 25.2716C4.02894 25.2858 4.06507 25.293 4.10156 25.293H6.01904C6.16601 25.293 6.28906 25.1768 6.29247 25.0299C6.35742 23.0474 7.16064 21.1915 8.57226 19.7833C9.57714 18.7784 10.8076 18.0811 12.1509 17.7427C12.2842 17.7086 12.373 17.5821 12.356 17.4454Z"
    fill="#367D7E"
  />
</svg>
