<svg
  width="33"
  height="23"
  viewBox="0 0 33 23"
  fill="none"
  xmlns="http://www.w3.org/2000/svg"
>
  <g clip-path="url(#clip0)">
    <path
      d="M26.8091 22.5176C29.9607 22.5176 32.5155 19.9732 32.5155 16.8346C32.5155 13.696 29.9607 11.1516 26.8091 11.1516C23.6576 11.1516 21.1028 13.696 21.1028 16.8346C21.1028 19.9732 23.6576 22.5176 26.8091 22.5176Z"
      fill="#DCE0DF"
    />
    <path
      d="M6.24469 22.1421C9.39623 22.1421 11.9511 19.5977 11.9511 16.4591C11.9511 13.3205 9.39623 10.7761 6.24469 10.7761C3.09316 10.7761 0.53833 13.3205 0.53833 16.4591C0.53833 19.5977 3.09316 22.1421 6.24469 22.1421Z"
      fill="#DCE0DF"
    />
    <path
      d="M26.8091 19.6224C28.3552 19.6224 29.6085 18.3742 29.6085 16.8345C29.6085 15.2948 28.3552 14.0466 26.8091 14.0466C25.2631 14.0466 24.0098 15.2948 24.0098 16.8345C24.0098 18.3742 25.2631 19.6224 26.8091 19.6224Z"
      stroke="#367D7E"
      stroke-miterlimit="10"
    />
    <path
      d="M6.24478 19.4079C7.88001 19.4079 9.20563 18.0877 9.20563 16.4592C9.20563 14.8307 7.88001 13.5105 6.24478 13.5105C4.60955 13.5105 3.28394 14.8307 3.28394 16.4592C3.28394 18.0877 4.60955 19.4079 6.24478 19.4079Z"
      stroke="#F7B32B"
      stroke-miterlimit="10"
    />
    <path
      d="M9.20557 5.89746L20.8875 8.47089L26.8092 16.8345H17.4959L9.20557 5.89746Z"
      stroke="black"
      stroke-miterlimit="10"
      stroke-linecap="round"
      stroke-linejoin="round"
    />
    <path
      d="M14.7503 0.536133H10.659L6.24463 16.4592"
      stroke="black"
      stroke-miterlimit="10"
      stroke-linecap="round"
      stroke-linejoin="round"
    />
    <path
      d="M17.4958 16.8346L22.8792 3.37769"
      stroke="black"
      stroke-miterlimit="10"
      stroke-linecap="round"
      stroke-linejoin="round"
    />
    <path
      d="M24.9787 3.37769H20.7258"
      stroke="black"
      stroke-miterlimit="10"
      stroke-linecap="round"
      stroke-linejoin="round"
    />
    <path
      d="M26.8091 22.5176C29.9607 22.5176 32.5155 19.9732 32.5155 16.8346C32.5155 13.696 29.9607 11.1516 26.8091 11.1516C23.6576 11.1516 21.1028 13.696 21.1028 16.8346C21.1028 19.9732 23.6576 22.5176 26.8091 22.5176Z"
      stroke="black"
      stroke-miterlimit="10"
      stroke-linecap="round"
      stroke-linejoin="round"
    />
    <path
      d="M6.24469 22.1421C9.39623 22.1421 11.9511 19.5977 11.9511 16.4591C11.9511 13.3205 9.39623 10.7761 6.24469 10.7761C3.09316 10.7761 0.53833 13.3205 0.53833 16.4591C0.53833 19.5977 3.09316 22.1421 6.24469 22.1421Z"
      stroke="black"
      stroke-miterlimit="10"
      stroke-linecap="round"
      stroke-linejoin="round"
    />
  </g>
  <defs>
    <clipPath id="clip0">
      <rect width="33" height="23" fill="white" />
    </clipPath>
  </defs>
</svg>
