<svg
  width="32"
  height="18"
  viewBox="0 0 32 18"
  fill="none"
  xmlns="http://www.w3.org/2000/svg"
>
  <path
    d="M31.4649 2.1301V13.8461C31.4649 14.6982 30.7693 15.4437 29.8596 15.4437H26.6489C26.6489 14.3254 25.6857 13.3668 24.4549 13.3668C23.2776 13.3668 22.2609 14.2721 22.2609 15.4437H10.5418C10.5418 14.3254 9.57864 13.3668 8.34787 13.3668C7.17061 13.3668 6.15389 14.2721 6.15389 15.4437H2.14051C1.28432 15.4437 0.535156 14.7514 0.535156 13.8461V9.05318L2.5686 3.78099L3.21074 2.1301C3.4783 1.22478 3.90639 0.532471 4.81609 0.532471H29.9131C30.7693 0.532471 31.4649 1.22478 31.4649 2.1301Z"
    fill="#DCE0DF"
  />
  <path d="M31.1974 8.36084H0.535156V9.63895H31.1974V8.36084Z" fill="#F7B32B" />
  <path
    d="M9.46589 9.12451L15.7803 9.12451L15.7803 3.74581L9.46589 3.74581L9.46589 9.12451Z"
    fill="#E1ECEC"
  />
  <path
    d="M18.9205 9.12451L25.2349 9.12451L25.2349 3.74581L18.9205 3.74581L18.9205 9.12451Z"
    fill="#E1ECEC"
  />
  <path
    d="M13.2174 3.78101L10.1672 9.10645H9.63208L12.6287 3.78101H13.2174Z"
    fill="white"
  />
  <path
    d="M15.679 3.78101L12.6289 9.10645H11.5051L14.5018 3.78101H15.679Z"
    fill="white"
  />
  <path
    d="M22.6356 3.72778L19.5854 9.10648H19.0503L22.047 3.72778H22.6356Z"
    fill="white"
  />
  <path
    d="M25.097 3.72778L22.0468 9.10648H20.9231L23.9198 3.72778H25.097Z"
    fill="white"
  />
  <path
    d="M0.535156 9.05319H6.2074V3.78101H2.5686L0.535156 9.05319Z"
    fill="#E1ECEC"
  />
  <path d="M31.4648 3.78101H28.3076V9.1597H31.4648V3.78101Z" fill="#E1ECEC" />
  <path
    d="M6.20741 3.67456L3.15724 9.10651H1.97998L5.03015 3.67456H6.20741Z"
    fill="white"
  />
  <path d="M31.1974 10.5442H0.535156V13.3667H31.1974V10.5442Z" fill="#367D7E" />
  <path
    d="M0.535156 9.15964L6.2074 9.10638V3.88745H2.5686L0.535156 9.15964Z"
    stroke="black"
    stroke-miterlimit="10"
    stroke-linecap="round"
    stroke-linejoin="round"
  />
  <path
    d="M26.6489 15.3904C26.6489 16.5087 25.6857 17.4141 24.455 17.4141C23.2777 17.4141 22.261 16.5087 22.261 15.3904C22.261 14.2721 23.2242 13.3135 24.455 13.3135C25.6857 13.3667 26.6489 14.2721 26.6489 15.3904Z"
    stroke="black"
    stroke-miterlimit="10"
    stroke-linecap="round"
    stroke-linejoin="round"
  />
  <path
    d="M10.5418 15.3904C10.5418 16.5087 9.57856 17.4141 8.34779 17.4141C7.17053 17.4141 6.15381 16.5087 6.15381 15.3904C6.15381 14.2721 7.11702 13.3135 8.34779 13.3135C9.57856 13.3667 10.5418 14.2721 10.5418 15.3904Z"
    stroke="black"
    stroke-miterlimit="10"
    stroke-linecap="round"
    stroke-linejoin="round"
  />
  <path
    d="M9.46589 9.12451L15.7803 9.12451L15.7803 3.74581L9.46589 3.74581L9.46589 9.12451Z"
    stroke="black"
    stroke-miterlimit="10"
    stroke-linecap="round"
    stroke-linejoin="round"
  />
  <path
    d="M18.9205 9.12451L25.2349 9.12451L25.2349 3.74581L18.9205 3.74581L18.9205 9.12451Z"
    stroke="black"
    stroke-miterlimit="10"
    stroke-linecap="round"
    stroke-linejoin="round"
  />
  <path
    d="M31.4648 3.78101H28.3076V9.1597H31.4648V3.78101Z"
    stroke="black"
    stroke-miterlimit="10"
    stroke-linecap="round"
    stroke-linejoin="round"
  />
  <path
    d="M26.6489 15.3905H29.8596C30.7693 15.3905 31.4649 14.6982 31.4649 13.7928V9.10644V3.78099V2.1301C31.4649 1.27803 30.7693 0.532471 29.8596 0.532471H4.81609C3.90639 0.532471 3.4783 1.22478 3.21074 2.1301L2.5686 3.78099L0.535156 9.05318V10.8106V13.7928C0.535156 14.6449 1.23081 15.3905 2.14051 15.3905H6.2074"
    stroke="black"
    stroke-miterlimit="10"
    stroke-linecap="round"
    stroke-linejoin="round"
  />
  <path
    d="M10.5417 15.3904H22.3143"
    stroke="black"
    stroke-miterlimit="10"
    stroke-linecap="round"
    stroke-linejoin="round"
  />
  <path
    d="M0.535156 12.4082H2.99669"
    stroke="black"
    stroke-miterlimit="10"
    stroke-linecap="round"
    stroke-linejoin="round"
  />
</svg>
