<svg
  width="28"
  height="28"
  viewBox="0 0 28 28"
  fill="none"
  xmlns="http://www.w3.org/2000/svg"
>
  <path
    d="M2.33352 13.9999H4.66685C4.66408 12.7734 4.9035 11.5584 5.37138 10.4247C5.83926 9.2909 6.52639 8.26067 7.39335 7.39309C8.24245 6.54117 9.2499 5.86346 10.359 5.39809C12.6451 4.44834 15.2121 4.43117 17.5107 5.35025C17.5332 6.10563 17.8494 6.82246 18.392 7.34838C18.9347 7.8743 19.6611 8.16783 20.4169 8.16658C22.0339 8.16658 23.3335 6.86692 23.3335 5.24992C23.3335 3.63292 22.0339 2.33325 20.4169 2.33325C19.613 2.33325 18.8862 2.65525 18.36 3.17909C15.5239 2.04392 12.2665 2.06142 9.45252 3.24792C8.06551 3.8309 6.80537 4.67852 5.74252 5.74342C4.67715 6.80567 3.8291 8.06545 3.24585 9.45225C2.64059 10.8918 2.33035 12.4383 2.33352 13.9999ZM22.602 17.6423C22.1342 18.7529 21.4622 19.7516 20.607 20.6068C19.7519 21.4619 18.7532 22.1339 17.6414 22.6017C15.3553 23.5515 12.7883 23.5687 10.4897 22.6496C10.4672 21.8942 10.151 21.1774 9.60833 20.6515C9.06564 20.1255 8.33923 19.832 7.58352 19.8333C5.96652 19.8333 4.66685 21.1329 4.66685 22.7499C4.66685 24.3669 5.96652 25.6666 7.58352 25.6666C8.38735 25.6666 9.11419 25.3446 9.64035 24.8208C11.0258 25.3802 12.5061 25.6674 14.0002 25.6666C16.2945 25.671 18.539 24.9977 20.452 23.7312C22.3651 22.4647 23.8614 20.6614 24.7534 18.5476C25.3594 17.1082 25.6701 15.5617 25.6669 13.9999H23.3335C23.3364 15.2508 23.0877 16.4895 22.602 17.6423Z"
    fill="#367D7E"
  />
  <path
    d="M13.9999 8.70557C11.0809 8.70557 8.70557 11.0809 8.70557 13.9999C8.70557 16.9189 11.0809 19.2942 13.9999 19.2942C16.9189 19.2942 19.2942 16.9189 19.2942 13.9999C19.2942 11.0809 16.9189 8.70557 13.9999 8.70557ZM13.9999 16.9609C12.3677 16.9609 11.0389 15.6321 11.0389 13.9999C11.0389 12.3677 12.3677 11.0389 13.9999 11.0389C15.6321 11.0389 16.9609 12.3677 16.9609 13.9999C16.9609 15.6321 15.6321 16.9609 13.9999 16.9609Z"
    fill="#367D7E"
  />
</svg>
