<svg
  width="27"
  height="27"
  viewBox="0 0 27 27"
  fill="none"
  xmlns="http://www.w3.org/2000/svg"
>
  <path
    d="M12.3761 11.25H14.6261V16.875H12.3761V11.25ZM12.375 18H14.625V20.25H12.375V18Z"
    fill="#F7B32B"
  />
  <path
    d="M15.489 4.72502C15.0975 3.98815 14.3347 3.53027 13.5 3.53027C12.6652 3.53027 11.9025 3.98815 11.511 4.72615L3.25574 20.322C3.07255 20.6645 2.98181 21.0488 2.99246 21.4371C3.00312 21.8253 3.1148 22.2041 3.31649 22.536C3.51527 22.8694 3.79758 23.1453 4.13554 23.3362C4.4735 23.5272 4.85543 23.6268 5.24361 23.625H21.7564C22.5529 23.625 23.274 23.2178 23.6846 22.536C23.886 22.204 23.9975 21.8253 24.0081 21.4371C24.0188 21.0489 23.9282 20.6646 23.7454 20.322L15.489 4.72502ZM5.24361 21.375L13.5 5.77915L21.762 21.375H5.24361Z"
    fill="#367D7E"
  />
</svg>
