<svg
  width="32"
  height="32"
  viewBox="0 0 32 32"
  fill="none"
  xmlns="http://www.w3.org/2000/svg"
>
  <path
    d="M13.3332 24.0001C15.6998 23.9996 17.9982 23.2073 19.8625 21.7494L25.7238 27.6107L27.6092 25.7254L21.7478 19.8641C23.2065 17.9996 23.9993 15.7007 23.9998 13.3334C23.9998 7.45208 19.2145 2.66675 13.3332 2.66675C7.45184 2.66675 2.6665 7.45208 2.6665 13.3334C2.6665 19.2147 7.45184 24.0001 13.3332 24.0001ZM13.3332 5.33341C17.7452 5.33341 21.3332 8.92141 21.3332 13.3334C21.3332 17.7454 17.7452 21.3334 13.3332 21.3334C8.92117 21.3334 5.33317 17.7454 5.33317 13.3334C5.33317 8.92141 8.92117 5.33341 13.3332 5.33341Z"
    fill="#367D7E"
  />
</svg>
