<svg
  width="17"
  height="34"
  viewBox="0 0 17 34"
  fill="none"
  xmlns="http://www.w3.org/2000/svg"
>
  <path
    d="M15.3075 23.7409L13.3915 19.3588L14.5442 19.9976C14.627 20.0438 14.7169 20.0656 14.8058 20.0656C14.9922 20.0656 15.1737 19.9686 15.2763 19.7952L16.9214 17.0084C17.0772 16.7442 16.9933 16.4019 16.7333 16.2436L13.1612 14.0649V9.47541C13.1612 8.24862 12.372 7.2158 11.2862 6.84515C12.0973 6.12892 12.6128 5.07603 12.6128 3.90164C12.6128 1.75072 10.8908 0 8.77407 0C6.6573 0 4.93537 1.75072 4.93537 3.90164C4.93537 5.07603 5.45085 6.12892 6.26191 6.84515C5.17611 7.2158 4.38698 8.24862 4.38698 9.47541V11.6665L0.124921 16.9242C-0.0544008 17.1455 -0.0390468 17.4699 0.160566 17.6728L2.35411 19.9023C2.45721 20.007 2.5965 20.0656 2.74182 20.0656C2.74785 20.0656 2.75443 20.0656 2.76047 20.065C2.91237 20.06 3.0555 19.9909 3.1553 19.8744L4.6524 18.1281C4.87066 18.9274 5.22382 19.6799 5.69927 20.3604L4.42372 25.9715L1.18879 30.9038C1.03085 31.1446 1.08021 31.4678 1.30285 31.6484L4.04479 33.8779C4.1424 33.9576 4.26304 34 4.38698 34C4.41111 34 4.43579 33.9983 4.45991 33.995C4.60853 33.9749 4.74233 33.8935 4.83008 33.7704L9.21716 27.6392C9.25336 27.5885 9.28133 27.5322 9.29888 27.472L10.0491 24.9365L11.017 25.9197L12.6265 33.0101C12.6841 33.2637 12.9056 33.4426 13.1612 33.4426H16.4515C16.6143 33.4426 16.7695 33.3685 16.8737 33.2414C16.9779 33.1143 17.0207 32.946 16.9905 32.7827L15.3454 23.8647C15.3377 23.8217 15.3245 23.7805 15.3075 23.7409ZM6.03214 3.90164C6.03214 2.36495 7.26217 1.11475 8.77407 1.11475C10.286 1.11475 11.516 2.36495 11.516 3.90164C11.516 4.56157 11.2796 5.16075 10.9007 5.63898C10.5975 5.3302 10.4192 4.90603 10.4192 4.45902H9.32246C9.32246 5.16911 9.595 5.84131 10.0578 6.34908C9.67287 6.55866 9.2402 6.68852 8.77407 6.68852C7.26217 6.68852 6.03214 5.43833 6.03214 3.90164ZM2.7144 18.6916L1.28805 17.2419L4.38698 13.4194V16.1807C4.38698 16.359 4.40014 16.5351 4.4122 16.7113L2.7144 18.6916ZM8.27559 27.0601L4.28114 32.6433L2.38043 31.0977L5.39162 26.5066C5.42837 26.4503 5.45469 26.3885 5.46949 26.3232L6.58491 21.4167L9.16891 24.043L8.27559 27.0601ZM13.5971 32.3279L12.0501 25.5139C12.0271 25.4119 11.9761 25.3189 11.9032 25.2453L7.24736 20.5131C6.11056 19.3571 5.48375 17.8182 5.48375 16.1807V9.47541C5.48375 8.55351 6.22188 7.80328 7.12891 7.80328H10.4192C11.3263 7.80328 12.0644 8.55351 12.0644 9.47541V13.396L11.4239 13.0053L10.3913 9.85666L9.35097 10.2095L10.4477 13.5537C10.4894 13.6803 10.5733 13.7867 10.6857 13.8553L15.6996 16.9125L14.6073 18.7624L9.20017 15.7649L7.08175 10.9212L6.07985 11.3738L8.27339 16.3902C8.3222 16.5017 8.4061 16.5942 8.51194 16.6533L12.0644 18.6231V18.9508C12.0644 19.0289 12.0803 19.1058 12.1115 19.1771L14.2788 24.1339L15.7907 32.3279H13.5971Z"
    fill="black"
  />
  <circle cx="8.85" cy="3.85" r="2.85" fill="#F7B32B" />
</svg>
