<svg
  width="33"
  height="16"
  viewBox="0 0 33 16"
  fill="none"
  xmlns="http://www.w3.org/2000/svg"
>
  <path
    d="M32.4537 7.17245V11.8621C32.4537 12.6897 31.7434 13.3518 30.8692 13.3518H27.755C27.755 12.1931 26.7716 11.2 25.5149 11.2C24.2583 11.2 23.2749 12.138 23.2749 13.3518H9.06957C9.06957 12.1931 8.08612 11.2 6.8295 11.2C5.62751 11.2 4.58943 12.138 4.58943 13.3518H2.34937C1.36592 13.3518 0.546387 12.6897 0.546387 11.8621V8.00003C0.546387 6.89659 1.36592 6.069 2.404 6.069H6.44705C6.61096 6.069 6.77486 6.069 6.93877 6.01383C6.99341 6.01383 7.04804 5.95865 7.10268 5.95865C7.32122 5.84831 7.48513 5.73796 7.64904 5.62762L12.6755 1.10348C13.058 0.717275 13.6043 0.551758 14.1507 0.551758H24.3676C24.8047 0.551758 25.1871 0.772447 25.4057 1.10348L28.0828 5.40693C28.356 5.79314 28.7931 6.069 29.2302 6.069H31.2517C31.9073 6.069 32.4537 6.56555 32.4537 7.17245Z"
    fill="#DCE0DF"
  />
  <path
    d="M7.0481 6.069H23.2749C23.7666 6.069 24.0945 5.51728 23.8759 5.02072L21.5812 0.551758H13.9322L7.0481 6.069Z"
    fill="#E1ECEC"
  />
  <path
    d="M16.2815 0.717282L12.7848 6.01383L11.6375 5.90349L15.1341 0.662109L16.2815 0.717282Z"
    fill="white"
  />
  <path
    d="M20.2698 0.551758L17.2102 6.069H16.6638L19.7234 0.551758H20.2698Z"
    fill="white"
  />
  <path
    d="M22.7831 0.551758L19.7235 6.069H18.5762L21.6358 0.551758H22.7831Z"
    fill="white"
  />
  <path d="M32.4537 8.27588H0.546387V11.2H32.4537V8.27588Z" fill="#367D7E" />
  <path d="M29.394 5.51733H22.8923V6.62078H29.394V5.51733Z" fill="#F7B32B" />
  <path
    d="M0.546387 8.77246H3.05963"
    stroke="black"
    stroke-miterlimit="10"
    stroke-linecap="round"
    stroke-linejoin="round"
  />
  <path
    d="M27.7003 13.2965C27.7003 14.4551 26.7169 15.3931 25.4603 15.3931C24.2037 15.3931 23.2202 14.4551 23.2202 13.2965C23.2202 12.1379 24.2037 11.1448 25.4603 11.1448C26.7169 11.1448 27.7003 12.1379 27.7003 13.2965Z"
    stroke="black"
    stroke-miterlimit="10"
    stroke-linecap="round"
    stroke-linejoin="round"
  />
  <path
    d="M9.01504 13.2965C9.01504 14.4551 8.0316 15.3931 6.77498 15.3931C5.57299 15.3931 4.53491 14.4551 4.53491 13.2965C4.53491 12.1379 5.51836 11.1448 6.77498 11.1448C8.0316 11.1999 9.01504 12.1379 9.01504 13.2965Z"
    stroke="black"
    stroke-miterlimit="10"
    stroke-linecap="round"
    stroke-linejoin="round"
  />
  <path
    d="M9.01489 13.2966H23.2202"
    stroke="black"
    stroke-miterlimit="10"
    stroke-linecap="round"
    stroke-linejoin="round"
  />
  <path
    d="M4.58943 13.2966H2.34937C1.36592 13.2966 0.546387 12.6345 0.546387 11.8069V8.82762V7.88969C0.546387 6.89659 1.36592 6.069 2.404 6.069H6.44705C6.88414 6.069 7.32122 5.90348 7.70367 5.57245L12.6755 1.10348C13.058 0.717275 13.6043 0.551758 14.1507 0.551758H18.0298H24.3129C24.75 0.551758 25.1325 0.772447 25.351 1.10348L28.0282 5.40693C28.3014 5.79314 28.7384 6.069 29.1755 6.069H31.197C31.8527 6.069 32.399 6.56555 32.399 7.17245V11.8621C32.399 12.6897 31.6888 13.3518 30.8146 13.3518H27.7004"
    stroke="black"
    stroke-miterlimit="10"
    stroke-linecap="round"
    stroke-linejoin="round"
  />
  <path
    d="M4.31616 6.069H23.4933C23.985 6.069 24.3128 5.51728 24.0943 5.02072L21.7996 0.551758"
    stroke="black"
    stroke-miterlimit="10"
    stroke-linecap="round"
    stroke-linejoin="round"
  />
  <path
    d="M16.937 0.551758V6.069"
    stroke="black"
    stroke-miterlimit="10"
    stroke-linecap="round"
    stroke-linejoin="round"
  />
</svg>
