<svg
  width="32"
  height="32"
  viewBox="0 0 32 32"
  fill="none"
  xmlns="http://www.w3.org/2000/svg"
>
  <path
    d="M20 8H18C18 6.67392 17.4732 5.40215 16.5355 4.46447C15.5979 3.52678 14.3261 3 13 3C11.6739 3 10.4021 3.52678 9.46447 4.46447C8.52678 5.40215 8 6.67392 8 8H6C6 6.14348 6.7375 4.36301 8.05025 3.05025C9.36301 1.7375 11.1435 1 13 1C14.8565 1 16.637 1.7375 17.9497 3.05025C19.2625 4.36301 20 6.14348 20 8Z"
    fill="#F7B32B"
  />
  <path
    d="M25 15C24.4834 15.0019 23.9763 15.1398 23.53 15.4C23.2604 14.9724 22.8871 14.6198 22.4448 14.3751C22.0025 14.1303 21.5055 14.0013 21 14C20.4834 14.0019 19.9763 14.1398 19.53 14.4C19.1662 13.8275 18.6191 13.3952 17.978 13.1737C17.3369 12.9521 16.6397 12.9543 16 13.18V8C16 7.20435 15.6839 6.44129 15.1213 5.87868C14.5587 5.31607 13.7956 5 13 5C12.2043 5 11.4413 5.31607 10.8787 5.87868C10.3161 6.44129 9.99999 7.20435 9.99999 8V19.1L7.76999 17.58C7.25878 17.1993 6.63737 16.9957 5.99999 17C5.40497 16.9985 4.82295 17.174 4.32793 17.5042C3.83292 17.8344 3.44726 18.3043 3.22001 18.8542C2.99275 19.4041 2.93416 20.0092 3.05168 20.5925C3.1692 21.1758 3.45752 21.711 3.87999 22.13L11.88 29.43C13.0126 30.4437 14.48 31.0029 16 31H21C22.8565 31 24.637 30.2625 25.9497 28.9497C27.2625 27.637 28 25.8565 28 24V18C28 17.2044 27.6839 16.4413 27.1213 15.8787C26.5587 15.3161 25.7956 15 25 15ZM26 24C26 25.3261 25.4732 26.5979 24.5355 27.5355C23.5978 28.4732 22.3261 29 21 29H16C14.9892 29.0122 14.0084 28.6568 13.24 28L5.28999 20.7C5.10525 20.5137 5.00109 20.2623 4.99999 20C4.99999 19.8143 5.0517 19.6322 5.14934 19.4743C5.24697 19.3163 5.38667 19.1886 5.55278 19.1056C5.71888 19.0225 5.90483 18.9874 6.0898 19.004C6.27476 19.0207 6.45142 19.0886 6.59999 19.2L12 22.9V8C12 7.73478 12.1053 7.48043 12.2929 7.29289C12.4804 7.10536 12.7348 7 13 7C13.2652 7 13.5196 7.10536 13.7071 7.29289C13.8946 7.48043 14 7.73478 14 8V19H16V16C16 15.7348 16.1053 15.4804 16.2929 15.2929C16.4804 15.1054 16.7348 15 17 15C17.2652 15 17.5196 15.1054 17.7071 15.2929C17.8946 15.4804 18 15.7348 18 16V19H20V17C20 16.7348 20.1053 16.4804 20.2929 16.2929C20.4804 16.1054 20.7348 16 21 16C21.2652 16 21.5196 16.1054 21.7071 16.2929C21.8946 16.4804 22 16.7348 22 17V19H24V18C24 17.7348 24.1053 17.4804 24.2929 17.2929C24.4804 17.1054 24.7348 17 25 17C25.2652 17 25.5196 17.1054 25.7071 17.2929C25.8946 17.4804 26 17.7348 26 18V24Z"
    fill="#367D7E"
  />
</svg>
