<svg
  width="26"
  height="26"
  viewBox="0 0 26 26"
  fill="none"
  xmlns="http://www.w3.org/2000/svg"
>
  <g clip-path="url(#clip0)">
    <path
      fill-rule="evenodd"
      clip-rule="evenodd"
      d="M22.4168 5.03232L21.1493 4.73332L17.7238 8.13932L15.7835 6.16332L19.1245 2.6582L18.832 1.3712C18.126 1.13501 17.3876 1.01001 16.6432 1.0007C15.8311 0.988212 15.0251 1.1431 14.2755 1.4557C13.5518 1.78332 12.8975 2.24668 12.3483 2.8207C11.7369 3.39987 11.2527 4.09991 10.9264 4.87632C10.2983 6.42151 10.2983 8.15089 10.9264 9.69607C7.53867 13.0289 4.19468 16.406 0.895284 19.8263C0.554034 20.2732 0.391533 20.8306 0.433783 21.3912C0.467083 21.9942 0.738255 22.5593 1.18778 22.9626C1.38928 23.1819 1.62978 23.3639 1.89791 23.4956C2.17416 23.6174 2.47153 23.6873 2.77216 23.7019C3.28566 23.6922 3.77803 23.4972 4.15991 23.1543C6.67541 20.7867 11.4952 15.9231 14.2333 13.0728C14.9759 13.3881 15.7738 13.5506 16.5798 13.5489C17.3911 13.5483 18.1941 13.3851 18.9413 13.0688C19.6884 12.7526 20.3646 12.2898 20.9299 11.7078C22.0911 10.5236 22.7396 8.93006 22.7353 7.27157C22.7541 6.51266 22.6464 5.75591 22.4168 5.03232ZM3.17678 22.0022C3.11424 22.0577 3.03884 22.0968 2.95741 22.1159C2.8773 22.1298 2.7954 22.1298 2.71528 22.1159C2.63129 22.1031 2.55128 22.0715 2.48128 22.0233C2.40617 21.9794 2.34265 21.9181 2.29603 21.8446C2.06853 21.6122 1.85566 21.1702 2.06853 20.9216C4.29478 18.5539 8.87891 13.9259 11.7454 11.0968C11.9079 11.3113 12.0867 11.5161 12.2784 11.7078C12.4702 11.9077 12.6765 12.0929 12.8959 12.2619C10.1237 15.1057 5.60291 19.6784 3.17841 22.0022H3.17678ZM21.2435 7.27157C21.2468 8.5147 20.7625 9.70907 19.8915 10.5996C19.0224 11.4522 17.8534 11.9298 16.6358 11.9298C15.4183 11.9298 14.2493 11.4522 13.3802 10.5996C12.7431 9.93478 12.308 9.10277 12.1253 8.20034C11.9426 7.2979 12.02 6.36215 12.3483 5.50195C12.5668 4.91652 12.9058 4.38347 13.3433 3.93728C13.7808 3.4911 14.3071 3.14171 14.8882 2.9117C15.4398 2.6808 16.0321 2.56256 16.6302 2.56395H17.0429L14.0903 5.60757V6.73857L17.1697 9.80332H18.2422L21.2435 6.85232V7.27157ZM3.67566 10.2372H6.16353L7.30916 11.4023L8.41091 10.3071L7.33028 9.20532V9.13545L7.42291 6.45582L7.06541 5.7457L2.41791 2.68745L1.45753 2.7947L0.107159 4.17432L-9.15527e-05 5.1477L2.98666 9.88945L3.67566 10.2388V10.2372ZM2.14003 4.3352L5.90028 6.8117L5.83691 8.63657H4.08841L1.66391 4.79832L2.14003 4.3352ZM13.6857 15.6452L14.7809 14.5516L19.8282 19.7272C20.2533 20.174 20.4904 20.7671 20.4904 21.3839C20.4904 22.0006 20.2533 22.5938 19.8282 23.0406C19.5085 23.3688 19.0974 23.5931 18.6485 23.6844C18.1995 23.7757 17.7335 23.7297 17.311 23.5524C17.0414 23.4329 16.7996 23.2586 16.6009 23.0406L11.4952 17.8357L12.5985 16.7339L17.688 21.9242C17.7565 21.9997 17.8416 22.0581 17.9367 22.0948C18.1237 22.1708 18.333 22.1708 18.52 22.0948C18.6151 22.0581 18.7002 21.9996 18.7687 21.9242C18.8398 21.8537 18.8952 21.769 18.9312 21.6756C18.9684 21.5802 18.9883 21.4789 18.9897 21.3766C18.988 21.2744 18.9688 21.1732 18.9328 21.0776C18.8968 20.9841 18.8414 20.8994 18.7703 20.8289L13.6857 15.6452Z"
      fill="#367D7E"
    />
  </g>
  <defs>
    <clipPath id="clip0">
      <rect width="26" height="26" fill="white" />
    </clipPath>
  </defs>
</svg>
