<svg
  width="340"
  height="332"
  viewBox="0 0 340 332"
  fill="none"
  xmlns="http://www.w3.org/2000/svg"
>
  <path
    fill-rule="evenodd"
    clip-rule="evenodd"
    d="M202.365 224.208C228.192 233.494 255.654 248.088 285.077 268.32V170.478H340V331.005H296.192C281.481 317.075 265.135 305.467 248.135 296.18C227.212 284.903 203.673 275.948 177.846 269.315C176.865 268.983 176.212 268.983 175.231 268.651V215.916C184.712 218.569 193.865 221.223 202.365 224.208ZM137.635 225.203C111.808 234.49 84.3462 249.083 54.9231 269.315V171.473H0V332H43.8077C58.5192 318.07 74.8654 306.462 91.8654 297.175C112.788 285.898 136.327 276.943 162.154 270.31C163.135 269.978 163.788 269.978 164.769 269.646V216.911C154.962 219.233 146.135 222.218 137.635 225.203ZM285.077 160.527V62.6853C255.654 82.9171 228.192 97.5105 202.365 106.797C193.865 109.782 184.712 112.767 174.904 115.089V62.3536C175.885 62.022 176.865 62.022 177.519 61.6903C203.346 55.0569 226.558 46.1019 247.808 34.8252C265.135 25.5385 281.154 13.9301 296.192 0H340V160.527H285.077ZM54.9231 161.191V63.6803C84.3462 83.9121 111.808 98.5055 137.635 107.792C146.135 110.777 155.288 113.762 165.096 116.084V63.3487C164.115 63.017 163.135 63.017 162.481 62.6853C136.654 56.0519 113.442 47.0969 92.1923 35.8202C74.8654 26.5335 58.5192 14.5934 43.8077 0.663337H0V161.191H54.9231Z"
    fill="#367D7E"
    fill-opacity="0.1"
  />
</svg>
