<svg
  width="182"
  height="46"
  viewBox="0 0 182 46"
  fill="none"
  xmlns="http://www.w3.org/2000/svg"
>
  <path
    fill-rule="evenodd"
    clip-rule="evenodd"
    d="M27.5717 30.5305C31.0906 31.7951 34.8321 33.7823 38.8409 36.5372V23.214H46.324V45.0731H40.3554C38.351 43.1763 36.1238 41.5956 33.8076 40.331C30.9569 38.7954 27.7499 37.576 24.231 36.6727C24.0974 36.6276 24.0083 36.6276 23.8747 36.5824V29.4014C25.1664 29.7627 26.4136 30.124 27.5717 30.5305ZM18.7523 30.666C15.2335 31.9306 11.4919 33.9178 7.48311 36.6727V23.3495H0V45.2086H5.96867C7.97308 43.3118 10.2002 41.731 12.5164 40.4665C15.3671 38.9309 18.5742 37.7115 22.093 36.8082C22.2266 36.7631 22.3157 36.7631 22.4493 36.7179V29.5369C21.1131 29.8531 19.9104 30.2595 18.7523 30.666ZM38.8409 21.8591V8.5359C34.8321 11.2909 31.0906 13.2781 27.5717 14.5426C26.4136 14.9491 25.1664 15.3556 23.8302 15.6717V8.49073C23.9638 8.44557 24.0974 8.44557 24.1865 8.4004C27.7053 7.49714 30.8678 6.27772 33.7631 4.74216C36.1238 3.47759 38.3064 1.89687 40.3554 0H46.324V21.8591H38.8409ZM7.48311 21.9494V8.67139C11.4919 11.4264 15.2335 13.4135 18.7523 14.6781C19.9104 15.0846 21.1576 15.4911 22.4939 15.8072V8.62622C22.3603 8.58106 22.2266 8.58106 22.1375 8.5359C18.6187 7.63263 15.4562 6.41321 12.5609 4.87765C10.2002 3.61308 7.97308 1.98719 5.96867 0.0903269H0V21.9494H7.48311Z"
    fill="#34807F"
  />
  <path
    d="M53.5845 32.1564V16.6653C53.5845 15.3104 53.9408 14.3168 54.6535 13.5942C55.9898 12.2845 59.1077 12.4651 60.8449 12.7361V15.8524H58.7959C58.2614 15.8524 57.9051 15.9427 57.6824 16.0782C57.5042 16.2137 57.4151 16.5298 57.4151 16.9815V18.0202H60.8894V18.8783C60.8894 19.4203 60.7112 19.9171 60.3549 20.2784C59.9986 20.6397 59.5531 20.8203 59.0632 20.8203H57.4151V32.1564H53.5845ZM89.7974 32.1564V24.8399C89.7974 23.3947 90.0201 22.1301 90.421 21.1365C90.8664 20.1429 91.4454 19.33 92.1581 18.7428C92.8708 18.2009 93.6726 17.7492 94.6525 17.4782C95.5879 17.2073 96.5678 17.0718 97.5923 17.0718C97.6814 17.0718 97.7705 17.0718 97.8595 17.0718C97.9486 17.0718 98.0823 17.0718 98.1268 17.0718V21.0913H96.8351C95.7661 21.0913 94.9643 21.3623 94.4298 21.9043C93.8953 22.4462 93.628 23.2592 93.628 24.3883V32.1112H89.7974V32.1564ZM88.5947 17.1169V25.9238C88.5947 28.5885 87.9266 30.3498 86.5458 31.1628C85.165 31.9757 83.6505 32.4274 82.047 32.4274C80.4435 32.337 78.9736 31.8854 77.6819 31.0725C76.3456 30.2595 75.722 28.5433 75.722 25.9238V17.1169H79.6417V26.7368C79.6417 27.64 79.909 28.3175 80.4435 28.724C80.978 29.1304 81.5571 29.3562 82.2252 29.3562C82.8933 29.3562 83.5169 29.1304 84.0514 28.724C84.5859 28.3175 84.8532 27.64 84.8532 26.7368V19.059C84.8532 18.517 85.0314 18.0654 85.3877 17.7041C85.744 17.3428 86.1895 17.1621 86.7685 17.1621H88.5947V17.1169ZM62.9829 30.8015C63.7401 31.4789 64.7201 31.9757 65.9672 32.2467C67.2144 32.5177 68.4616 32.5177 69.6642 32.1564C71.0451 31.8402 72.1586 31.0725 73.0495 29.853C73.4503 29.2659 73.8067 28.4981 74.0739 27.64C74.3412 26.7819 74.4748 25.7432 74.4748 24.5238C74.4748 22.8527 74.163 21.4075 73.5394 20.1881C72.8713 18.788 71.8468 17.7944 70.4215 17.2524C69.1743 16.8008 67.838 16.6653 66.279 16.8911C64.7646 17.1169 63.5174 17.7492 62.5375 18.8783C61.9584 19.5558 61.513 20.4139 61.2458 21.4075C60.9785 22.4462 60.8449 23.4398 60.8449 24.4786C60.8449 25.7432 61.023 26.9174 61.3348 28.0465C61.6466 29.1756 62.1811 30.124 62.9829 30.8015ZM65.6554 20.8203C65.9227 20.5494 66.3236 20.3235 66.9026 20.1881C67.4371 20.0074 68.0162 20.0074 68.5952 20.2332C69.1297 20.4139 69.6197 20.8655 70.0651 21.543C70.5106 22.2204 70.6887 23.214 70.6887 24.6141C70.6442 26.1045 70.4215 27.2336 69.9761 27.8658C69.5306 28.5433 68.9961 28.9498 68.4616 29.1304C67.8826 29.3111 67.3035 29.2659 66.769 29.0853C66.2345 28.8594 65.8336 28.6336 65.6109 28.3175C65.0764 27.64 64.7201 26.4206 64.6755 24.7496C64.4973 22.9882 64.8537 21.7236 65.6554 20.8203Z"
    fill="#162A2B"
  />
  <path
    d="M99.2849 27.1884H103.071C103.116 27.9562 103.383 28.4981 103.917 28.9046C104.496 29.2659 105.209 29.4466 106.144 29.4466C106.813 29.4466 107.392 29.3111 107.882 29.0401C108.327 28.7691 108.55 28.4078 108.55 27.9562C108.55 27.2787 107.748 26.7819 106.234 26.4206C105.565 26.2851 105.075 26.1948 104.719 26.0593C102.759 25.5625 101.423 24.9754 100.755 24.2979C99.9976 23.6205 99.6413 22.7172 99.6413 21.5881C99.6413 20.1429 100.176 18.9687 101.245 18.0202C102.358 17.1621 103.828 16.7105 105.61 16.7105C107.525 16.7105 109.084 17.1621 110.242 18.0202C111.311 18.9687 111.89 20.1881 111.979 21.6785H109.574C108.862 21.6785 108.327 21.3623 107.971 20.73C107.837 20.5945 107.659 20.4139 107.525 20.2784C107.08 19.9622 106.456 19.7816 105.699 19.7816C104.942 19.7816 104.407 19.8719 104.006 20.0977C103.695 20.3236 103.516 20.6849 103.516 21.1365C103.516 21.7236 104.496 22.2656 106.412 22.6721C106.634 22.7624 106.813 22.8075 106.991 22.8527C107.169 22.8979 107.303 22.8979 107.481 22.8979C109.351 23.3947 110.688 23.9366 111.445 24.5689C112.158 25.2464 112.514 26.1496 112.514 27.2787C112.514 28.9498 111.935 30.2144 110.732 31.1176C109.619 31.9306 107.926 32.3822 105.744 32.3822C103.606 32.3822 102.047 31.9306 101.022 31.0725C99.9531 30.2144 99.4185 28.9498 99.4185 27.2787V27.1884H99.2849ZM168.771 27.1884H172.557C172.602 27.9562 172.869 28.4981 173.403 28.9046C173.982 29.2659 174.695 29.4466 175.63 29.4466C176.299 29.4466 176.878 29.3111 177.368 29.0401C177.813 28.7691 178.036 28.4078 178.036 27.9562C178.036 27.2787 177.234 26.7819 175.72 26.4206C175.051 26.2851 174.561 26.1948 174.205 26.0593C172.245 25.5625 170.909 24.9754 170.241 24.2979C169.484 23.6205 169.127 22.7172 169.127 21.5881C169.127 20.1429 169.662 18.9687 170.731 18.0202C171.844 17.1621 173.314 16.7105 175.096 16.7105C177.011 16.7105 178.57 17.1621 179.728 18.0202C180.797 18.9687 181.376 20.1881 181.466 21.6785H179.06C178.348 21.6785 177.813 21.3623 177.457 20.73C177.323 20.5945 177.145 20.4139 177.011 20.2784C176.566 19.9622 175.942 19.7816 175.185 19.7816C174.428 19.7816 173.893 19.8719 173.492 20.0977C173.181 20.3236 173.002 20.6849 173.002 21.1365C173.002 21.7236 173.982 22.2656 175.898 22.6721C176.12 22.7624 176.299 22.8075 176.477 22.8527C176.655 22.8979 176.789 22.8979 176.967 22.8979C178.838 23.3947 180.174 23.9366 180.931 24.5689C181.644 25.2464 182 26.1496 182 27.2787C182 28.9498 181.421 30.2144 180.218 31.1176C179.105 31.9306 177.412 32.3822 175.23 32.3822C173.092 32.3822 171.533 31.9306 170.508 31.0725C169.439 30.2144 168.905 28.9498 168.905 27.2787V27.1884H168.771ZM167.88 32.1564H165.92C165.341 32.1564 164.896 31.9757 164.539 31.6144C164.183 31.2531 164.005 30.8015 164.005 30.2144V22.5366C164.005 21.6333 163.738 20.9558 163.203 20.5494C162.669 20.1429 162.045 19.9171 161.377 19.9171C160.709 19.9171 160.13 20.1429 159.595 20.5494C159.061 20.9558 158.793 21.6333 158.793 22.5366V32.1564H154.874V23.3043C154.874 20.73 155.542 19.0138 156.834 18.1557C158.17 17.2976 159.595 16.8008 161.199 16.7556C162.847 16.7556 164.317 17.2073 165.698 18.0654C167.078 18.9235 167.746 20.6849 167.746 23.3043V32.1564H167.88ZM150.731 27.5045H153.537C153.137 29.0853 152.335 30.3047 151.177 31.1176C150.019 31.9757 148.593 32.4274 146.812 32.4274C144.718 32.4274 143.025 31.7499 141.867 30.3498C140.665 28.9949 140.086 27.0529 140.086 24.5238C140.086 22.1301 140.665 20.2332 141.823 18.8783C143.025 17.4783 144.674 16.8008 146.767 16.8008C148.994 16.8008 150.731 17.4783 151.934 18.8332C153.137 20.2332 153.716 22.1753 153.716 24.6592C153.716 24.7947 153.716 24.9302 153.716 25.0657C153.716 25.2012 153.716 25.2464 153.716 25.2915C153.716 25.4722 153.716 25.6077 153.671 25.698H144.05C144.095 26.8723 144.362 27.7304 144.896 28.3175C145.386 28.9046 146.099 29.2208 147.079 29.2208C147.702 29.2208 148.237 29.0853 148.682 28.8143C148.771 28.7691 148.905 28.724 148.994 28.6336C149.083 28.5433 149.172 28.453 149.306 28.3175C149.351 28.2272 149.484 28.0465 149.707 27.8659C149.974 27.5949 150.286 27.5045 150.731 27.5045ZM144.05 23.0785H149.751C149.662 22.0398 149.44 21.3172 148.95 20.8204C148.46 20.2784 147.792 20.0074 146.901 20.0074C146.099 20.0074 145.431 20.2784 144.896 20.8204C144.362 21.3623 144.095 22.1301 144.05 23.0785ZM135.631 32.1564L140.843 17.117H137.948C137.057 17.117 136.478 17.5686 136.166 18.4719L133.538 27.6852L130.598 17.117H126.456L131.623 32.1564H135.631ZM123.917 27.5045H126.723C126.322 29.0853 125.52 30.3047 124.407 31.1176C123.249 31.9757 121.823 32.4274 120.042 32.4274C117.948 32.4274 116.256 31.7499 115.097 30.3498C113.895 28.9949 113.316 27.0529 113.316 24.5238C113.316 22.1301 113.895 20.2332 115.053 18.8783C116.256 17.4783 117.904 16.8008 119.997 16.8008C122.224 16.8008 123.961 17.4783 125.164 18.8332C126.367 20.2332 126.946 22.1753 126.946 24.6592C126.946 24.7947 126.946 24.9302 126.946 25.0657C126.946 25.2012 126.946 25.2464 126.946 25.2915C126.946 25.4722 126.946 25.6077 126.901 25.698H117.28C117.325 26.8723 117.592 27.7304 118.126 28.3175C118.616 28.9046 119.329 29.2208 120.309 29.2208C120.932 29.2208 121.467 29.0853 121.912 28.8143C122.002 28.7691 122.135 28.724 122.224 28.6336C122.313 28.5433 122.402 28.453 122.536 28.3175C122.581 28.2272 122.714 28.0465 122.937 27.8659C123.16 27.5949 123.471 27.5045 123.917 27.5045ZM117.235 23.0785H122.937C122.848 22.0398 122.625 21.3172 122.135 20.8204C121.645 20.2784 120.977 20.0074 120.086 20.0074C119.284 20.0074 118.616 20.2784 118.082 20.8204C117.547 21.3623 117.28 22.1301 117.235 23.0785Z"
    fill="#34807F"
  />
</svg>
