<svg
  width="15"
  height="27"
  viewBox="0 0 15 27"
  fill="none"
  xmlns="http://www.w3.org/2000/svg"
>
  <path
    d="M12.2662 0H2.73381C1.22302 0 -9.53674e-07 1.19531 -9.53674e-07 2.67188V24.3281C-9.53674e-07 25.8047 1.22302 27 2.73381 27H12.2662C13.777 27 15 25.8047 15 24.3281V2.67188C15 1.19531 13.777 0 12.2662 0ZM13.2374 21.6914H1.76259V5.0625H13.2374V21.6914ZM7.51799 25.3828C6.65468 25.3828 6.00719 24.75 6.00719 23.9414C6.00719 23.0977 6.65468 22.4648 7.51799 22.4648C8.34532 22.4648 8.99281 23.0977 8.99281 23.9414C8.99281 24.75 8.34532 25.3828 7.51799 25.3828Z"
    fill="#367D7E"
  />
</svg>
