<svg
  width="21"
  height="22"
  viewBox="0 0 21 22"
  fill="none"
  xmlns="http://www.w3.org/2000/svg"
>
  <path
    d="M6.04641 5.04167L8.05891 7.14084L6.81641 8.44251L4.81266 6.33417L2.80891 8.44251L1.56641 7.14084L3.57891 5.04167L1.56641 2.94251L2.80891 1.64084L4.81266 3.74917L6.81641 1.64084L8.05891 2.94251L6.04641 5.04167ZM19.4339 14.8592L18.1914 13.5575L16.1877 15.6658L14.1839 13.5575L12.9414 14.8592L14.9539 16.9583L12.9414 19.0575L14.1839 20.3592L16.1877 18.2508L18.1914 20.3592L19.4339 19.0575L17.4214 16.9583L19.4339 14.8592ZM17.8502 6.26084L15.0327 10.0833L13.6502 8.91917L14.6739 7.54417C13.3681 7.82205 12.15 8.43952 11.1317 9.33976C10.1133 10.24 9.32748 11.3941 8.84641 12.6958C9.608 13.2712 10.1483 14.1127 10.3697 15.0687C10.5912 16.0246 10.4793 17.032 10.0542 17.9091C9.62915 18.7862 8.91887 19.4752 8.05152 19.852C7.18417 20.2288 6.21684 20.2685 5.32403 19.9639C4.43122 19.6593 3.67171 19.0304 3.18249 18.1908C2.69327 17.3512 2.50656 16.3561 2.65604 15.3849C2.80552 14.4138 3.28134 13.5306 3.99768 12.8947C4.71401 12.2587 5.6237 11.9118 6.56266 11.9167C6.7919 11.9176 7.0205 11.9422 7.24516 11.99C7.85137 10.4139 8.81932 9.01881 10.0632 7.92832C11.3072 6.83783 12.7886 6.08561 14.3764 5.73834L13.1252 4.74834L14.2364 3.30001L17.8502 6.26084ZM8.75016 16.0417C8.75016 15.5884 8.62186 15.1454 8.3815 14.7685C8.14113 14.3916 7.79949 14.0979 7.39978 13.9244C7.00006 13.751 6.56023 13.7056 6.1359 13.794C5.71156 13.8825 5.32179 14.1007 5.01586 14.4212C4.70993 14.7417 4.50159 15.1501 4.41719 15.5946C4.33278 16.0391 4.3761 16.4999 4.54167 16.9187C4.70724 17.3374 4.98761 17.6953 5.34735 17.9471C5.70708 18.1989 6.13001 18.3333 6.56266 18.3333C7.14282 18.3333 7.69922 18.0919 8.10945 17.6621C8.51969 17.2324 8.75016 16.6495 8.75016 16.0417Z"
    fill="#367D7E"
  />
</svg>
