<svg
  width="28"
  height="28"
  viewBox="0 0 28 28"
  fill="none"
  xmlns="http://www.w3.org/2000/svg"
>
  <path
    fill-rule="evenodd"
    clip-rule="evenodd"
    d="M22.75 24.5C22.75 24.5 24.5 24.5 24.5 22.75C24.5 21 22.75 15.75 14 15.75C5.25 15.75 3.5 21 3.5 22.75C3.5 24.5 5.25 24.5 5.25 24.5H22.75ZM5.25875 22.848V22.8445V22.848ZM5.2885 22.75H22.7115C22.7197 22.749 22.7279 22.7479 22.736 22.7465L22.75 22.743C22.7482 22.3125 22.4805 21.0175 21.294 19.831C20.153 18.69 18.0057 17.5 14 17.5C9.9925 17.5 7.847 18.69 6.706 19.831C5.5195 21.0175 5.2535 22.3125 5.25 22.743C5.26281 22.7455 5.27564 22.7478 5.2885 22.75ZM22.743 22.848V22.8445V22.848ZM14 12.25C14.9283 12.25 15.8185 11.8813 16.4749 11.2249C17.1313 10.5685 17.5 9.67826 17.5 8.75C17.5 7.82174 17.1313 6.9315 16.4749 6.27513C15.8185 5.61875 14.9283 5.25 14 5.25C13.0717 5.25 12.1815 5.61875 11.5251 6.27513C10.8687 6.9315 10.5 7.82174 10.5 8.75C10.5 9.67826 10.8687 10.5685 11.5251 11.2249C12.1815 11.8813 13.0717 12.25 14 12.25ZM19.25 8.75C19.25 10.1424 18.6969 11.4777 17.7123 12.4623C16.7277 13.4469 15.3924 14 14 14C12.6076 14 11.2723 13.4469 10.2877 12.4623C9.30312 11.4777 8.75 10.1424 8.75 8.75C8.75 7.35761 9.30312 6.02226 10.2877 5.03769C11.2723 4.05312 12.6076 3.5 14 3.5C15.3924 3.5 16.7277 4.05312 17.7123 5.03769C18.6969 6.02226 19.25 7.35761 19.25 8.75Z"
    fill="#367D7E"
  />
</svg>
