<svg
  width="17"
  height="14"
  viewBox="0 0 17 14"
  fill="none"
  xmlns="http://www.w3.org/2000/svg"
>
  <path
    fill-rule="evenodd"
    clip-rule="evenodd"
    d="M17 1.66923C16.3625 1.93846 15.6984 2.15385 15.0078 2.23462C15.725 1.80385 16.2828 1.10385 16.5484 0.269231C15.8844 0.673077 15.1406 0.969231 14.3438 1.13077C13.6797 0.430769 12.7766 0 11.7672 0C9.82812 0 8.2875 1.58846 8.2875 3.52692C8.2875 3.79615 8.31406 4.06538 8.36719 4.33462C5.47188 4.2 2.89531 2.77308 1.19531 0.646154C0.903125 1.15769 0.717188 1.77692 0.717188 2.42308C0.717188 3.66154 1.32812 4.73846 2.25781 5.35769C1.67344 5.33077 1.14219 5.16923 0.690625 4.92692C0.690625 4.95385 0.690625 4.95385 0.690625 4.98077C0.690625 6.70385 1.88594 8.13077 3.47969 8.45385C3.1875 8.53462 2.86875 8.58846 2.55 8.58846C2.3375 8.58846 2.09844 8.56154 1.88594 8.53462C2.3375 9.93462 3.6125 10.9577 5.15312 10.9846C3.95781 11.9269 2.44375 12.4923 0.823438 12.4923C0.53125 12.4923 0.265625 12.4654 0 12.4385C1.54062 13.4077 3.37344 14 5.33906 14C11.7672 14 15.2734 8.61539 15.2734 3.93077C15.2734 3.76923 15.2734 3.63462 15.2734 3.47308C15.9375 2.98846 16.5219 2.36923 17 1.66923Z"
    fill="#162A2B"
  />
</svg>
