<svg
  width="15"
  height="16"
  viewBox="0 0 15 16"
  fill="none"
  xmlns="http://www.w3.org/2000/svg"
>
  <path
    fill-rule="evenodd"
    clip-rule="evenodd"
    d="M1.97368 3.94737C0.866495 3.94737 0 3.08087 0 1.97368C0 0.866495 0.866495 0 1.97368 0C3.08087 0 3.94737 0.866495 3.94737 1.97368C3.94737 3.03273 3.08087 3.94737 1.97368 3.94737ZM3.15789 15.7895H0V5.52632H3.15789V15.7895ZM11.9701 15.7895H14.9573V9.86338C14.9573 6.94737 14.4026 4.73684 11.33 4.73684C9.87909 4.73684 8.85491 5.63046 8.47084 6.47704H8.42817V5.01904H5.52632V15.7895H8.55619V10.4748C8.55619 9.06383 8.81223 7.69989 10.3912 7.69989C11.9701 7.69989 11.9701 9.29899 11.9701 10.5689V15.7895Z"
    fill="#162A2B"
  />
</svg>
