<svg
  width="25"
  height="25"
  viewBox="0 0 25 25"
  fill="none"
  xmlns="http://www.w3.org/2000/svg"
>
  <circle cx="12.5" cy="12.5" r="12.5" fill="white" />
  <path
    fill-rule="evenodd"
    clip-rule="evenodd"
    d="M8.94379 8.30883C8.90225 8.25554 8.84986 8.21169 8.7901 8.18018C8.73034 8.14866 8.66457 8.1302 8.59713 8.12602C8.5297 8.12183 8.46215 8.13202 8.39895 8.15591C8.33575 8.1798 8.27834 8.21684 8.23054 8.26458L7.50304 8.99208C7.16329 9.33183 7.03804 9.81333 7.18729 10.2356C7.80283 11.9849 8.80435 13.5732 10.1175 14.8826C11.427 16.1957 13.0152 17.1973 14.7645 17.8128C15.1868 17.9613 15.6683 17.8368 16.008 17.4971L16.7355 16.7696C16.7832 16.7217 16.8202 16.6643 16.844 16.601C16.8679 16.5378 16.878 16.4703 16.8737 16.4028C16.8695 16.3354 16.851 16.2696 16.8194 16.2099C16.7878 16.1502 16.7439 16.0978 16.6905 16.0563L15.069 14.7948C15.012 14.7505 14.9456 14.7197 14.875 14.7048C14.8043 14.6898 14.7311 14.6911 14.661 14.7086L13.122 15.0933C12.9165 15.1448 12.701 15.1422 12.4968 15.0856C12.2925 15.0291 12.1064 14.9207 11.9565 14.7708L10.23 13.0436C10.0802 12.8937 9.97175 12.7076 9.91523 12.5033C9.85872 12.2991 9.85606 12.0837 9.90754 11.8781L10.2923 10.3391C10.3097 10.269 10.3111 10.1958 10.2961 10.1252C10.2812 10.0545 10.2504 9.98812 10.206 9.93108L8.94379 8.30883ZM7.70029 7.73508C7.82334 7.61211 7.97113 7.51671 8.13386 7.45521C8.29659 7.39371 8.47054 7.36751 8.64417 7.37837C8.81779 7.38922 8.98713 7.43687 9.14093 7.51815C9.29474 7.59943 9.42951 7.71249 9.53629 7.84983L10.797 9.47133C11.0288 9.76833 11.1105 10.1561 11.019 10.5213L10.6343 12.0611C10.6143 12.141 10.6153 12.2247 10.6372 12.3041C10.6592 12.3835 10.7013 12.4558 10.7595 12.5141L12.4875 14.2406C12.5458 14.2988 12.6182 14.3409 12.6975 14.3629C12.7769 14.3848 12.8606 14.3858 12.9405 14.3658L14.4795 13.9811C14.66 13.936 14.8485 13.9326 15.0305 13.971C15.2125 14.0095 15.3834 14.0888 15.5303 14.2031L17.1518 15.4638C17.7345 15.9168 17.7885 16.7786 17.2665 17.2998L16.539 18.0273C16.0193 18.5471 15.2415 18.7758 14.5163 18.5208C12.6611 17.8678 10.9767 16.8056 9.58804 15.4128C8.19502 14.0242 7.1325 12.3398 6.47929 10.4846C6.22429 9.75933 6.45304 8.98158 6.97279 8.46108L7.70029 7.73433V7.73508Z"
    fill="#367D7E"
  />
</svg>
