<svg
  width="39"
  height="26"
  viewBox="0 0 39 26"
  fill="none"
  xmlns="http://www.w3.org/2000/svg"
>
  <g clip-path="url(#clip0)">
    <path
      d="M30.6611 6.42065H6.41438C5.32392 6.42065 4.81077 7.24706 4.49004 8.32774L3.7203 10.2984L1.15452 17.2275L0.769647 18.2446V18.3082L0.641357 18.6896V22.2495C0.641357 23.2666 1.47524 24.1566 2.5657 24.1566H7.4407L8.27458 21.9952C8.5953 21.296 9.23675 20.7238 10.0065 20.5331C10.1989 20.4696 10.3914 20.4696 10.6479 20.4696H23.7335C23.9259 20.4696 24.1825 20.4696 24.3749 20.5331C25.2088 20.7238 25.9144 21.296 26.171 22.1224L26.8124 24.1566H30.6611C31.7516 24.1566 32.5854 23.3302 32.5854 22.2495V8.26417C32.5854 7.31063 31.7516 6.42065 30.6611 6.42065ZM0.705502 18.6896L0.769647 18.4989L1.34695 17.2275L4.29761 10.2348H8.65945V16.5282L6.09366 17.2275L0.705502 18.6896Z"
      fill="#DCE0DF"
    />
    <path
      d="M0.641357 18.6894L8.5953 16.528V10.2346H4.23346L0.641357 18.6894Z"
      fill="#E1ECEC"
    />
    <path
      d="M11.6516 15.4268L19.2207 15.4268L19.2207 10.3412L11.6516 10.3412L11.6516 15.4268Z"
      fill="#E1ECEC"
    />
    <path
      d="M22.2175 15.4268L29.7866 15.4268L29.7866 10.3412L22.2175 10.3412L22.2175 15.4268Z"
      fill="#E1ECEC"
    />
    <path
      d="M8.59533 10.0439L4.93908 17.6087H3.59204L7.18415 10.0439H8.59533Z"
      fill="white"
    />
    <path
      d="M15.7795 10.2346L12.1873 15.3838H11.5459L15.138 10.2346H15.7795Z"
      fill="white"
    />
    <path
      d="M18.7302 10.2346L15.1381 15.3838H13.791L17.3831 10.2346H18.7302Z"
      fill="white"
    />
    <path
      d="M26.6842 10.2346L23.0921 15.3838H22.4507L26.0428 10.2346H26.6842Z"
      fill="white"
    />
    <path
      d="M29.6347 10.2346L26.0426 15.3838H24.6956L28.2877 10.2346H29.6347Z"
      fill="white"
    />
    <path
      d="M32.5212 16.0196H8.59521V14.8118H32.3929C32.4571 15.1932 32.5212 15.6382 32.5212 16.0196Z"
      fill="#F7B32B"
    />
    <path
      d="M1.28287 17.2273L0.705566 18.4987L0.769711 18.308L0.833856 18.2444L1.09043 17.2273H1.28287Z"
      fill="#FE1744"
    />
    <path
      d="M32.5854 17.2273C32.5854 18.6258 32.5213 19.6429 32.393 20.5965H0.641357V18.8165V18.6894L5.96537 17.2273H32.5854Z"
      fill="#367D7E"
    />
    <path
      d="M8.59537 10.2346V16.528L6.02958 17.2273L0.705566 18.6894V18.4987L1.28287 17.2273L4.23353 10.2346H8.59537Z"
      stroke="black"
      stroke-miterlimit="10"
      stroke-linecap="round"
      stroke-linejoin="round"
    />
    <path
      d="M0.705502 18.4988V18.6895H0.641357L0.705502 18.4988Z"
      stroke="black"
      stroke-width="2"
      stroke-miterlimit="10"
      stroke-linecap="round"
      stroke-linejoin="round"
    />
    <path
      d="M16.036 23.0122C16.036 24.3472 14.9456 25.3643 13.6627 25.3643C12.3798 25.3643 11.2893 24.2836 11.2893 23.0122"
      stroke="black"
      stroke-miterlimit="10"
      stroke-linecap="round"
      stroke-linejoin="round"
    />
    <path
      d="M23.7335 23.0122C23.7335 24.3472 22.6431 25.3643 21.3602 25.3643C20.0131 25.3643 18.9868 24.2836 18.9868 23.0122"
      stroke="black"
      stroke-miterlimit="10"
      stroke-linecap="round"
      stroke-linejoin="round"
    />
    <path
      d="M11.6516 15.4268L19.2207 15.4268L19.2207 10.3412L11.6516 10.3412L11.6516 15.4268Z"
      stroke="black"
      stroke-miterlimit="10"
      stroke-linecap="round"
      stroke-linejoin="round"
    />
    <path
      d="M22.2175 15.4268L29.7866 15.4268L29.7866 10.3412L22.2175 10.3412L22.2175 15.4268Z"
      stroke="black"
      stroke-miterlimit="10"
      stroke-linecap="round"
      stroke-linejoin="round"
    />
    <path
      d="M26.8124 24.2202H30.6611C31.7516 24.2202 32.5854 23.3938 32.5854 22.3131V16.7189V10.2984V8.32774C32.5854 7.31063 31.7516 6.42065 30.6611 6.42065H6.41438C5.38807 6.42065 4.81077 7.24706 4.49004 8.32774L3.7203 10.2984L0.641357 18.6896V22.2495C0.641357 23.2666 1.47524 24.1566 2.5657 24.1566H7.4407L8.27458 21.9952C8.65945 21.1053 9.55748 20.4696 10.6479 20.4696H23.7335C24.8239 20.4696 25.8502 21.1688 26.171 22.1224L26.8124 24.2202Z"
      stroke="black"
      stroke-miterlimit="10"
      stroke-linecap="round"
      stroke-linejoin="round"
    />
    <path
      d="M38.3584 6.42065C37.268 6.42065 36.4341 7.24706 36.4341 8.32774V10.2984V16.7189V22.3131C36.4341 23.3302 37.268 24.2202 38.3584 24.2202"
      stroke="black"
      stroke-miterlimit="10"
      stroke-linecap="round"
      stroke-linejoin="round"
    />
    <path
      d="M19.1792 6.42058L24.3108 3.49638L19.1792 0.635742L14.0476 3.55995L19.1792 6.42058Z"
      stroke="black"
      stroke-miterlimit="10"
      stroke-linecap="round"
      stroke-linejoin="round"
    />
    <path
      d="M0.641357 21.1052H3.59202"
      stroke="black"
      stroke-miterlimit="10"
      stroke-linecap="round"
      stroke-linejoin="round"
    />
  </g>
  <defs>
    <clipPath id="clip0">
      <rect width="39" height="26" fill="white" />
    </clipPath>
  </defs>
</svg>
